<svg id="svg14" xmlns="http://www.w3.org/2000/svg" viewBox="0 0 44.53 49.27"><defs><style>.cls-1{fill:#fff;stroke:#000;stroke-miterlimit:10;}.cls-2{fill:#15a8cf;stroke:#15a8cf;stroke-width:0.36px;}</style></defs><g id="g1163"><g id="g1107"><g id="g1115"><g id="g1121"><g id="g1119"><path id="path1667" class="cls-1" d="M50.53,53.11a3,3,0,0,0,.8-1.6,2.38,2.38,0,0,0-.5-1.8l-7.5-10,8.5-2.9a6.57,6.57,0,0,0,2.9-1.7,3.25,3.25,0,0,0,1-1.8,2.67,2.67,0,0,0-.5-2.1,6.55,6.55,0,0,0-1.8-1.5L14.83,10h-.1a2,2,0,0,0-1.7.1l-.3.3a2.39,2.39,0,0,0-.5,1.4V12L21,54.31a4.31,4.31,0,0,0,.9,2.2,3,3,0,0,0,1.9,1,3.51,3.51,0,0,0,2-.5,7.56,7.56,0,0,0,2.4-2.3h0l5.1-7.4,7.6,9.9a2.6,2.6,0,0,0,1.6.9,2.83,2.83,0,0,0,1.8-.4h.1l5.9-4.5Z" transform="translate(-11.73 -9.37)"/><path id="path1763" class="cls-1" d="M21.93,45.91" transform="translate(-11.73 -9.37)"/></g></g></g></g></g><path class="cls-2" d="M-4.5,58.9" transform="translate(-11.73 -9.37)"/><path class="cls-2" d="M-2.7,60.5" transform="translate(-11.73 -9.37)"/><path class="cls-2" d="M-1.8,59.7" transform="translate(-11.73 -9.37)"/></svg>