<?xml version="1.0" encoding="utf-8"?>
<!-- Generator: Adobe Illustrator 26.0.1, SVG Export Plug-In . SVG Version: 6.00 Build 0)  -->
<svg version="1.1" id="svg14" xmlns="http://www.w3.org/2000/svg" xmlns:xlink="http://www.w3.org/1999/xlink" x="0px" y="0px"
	 viewBox="0 0 483.9 87.5" style="enable-background:new 0 0 483.9 87.5;" xml:space="preserve">
<style type="text/css">
	.st0{fill-rule:evenodd;clip-rule:evenodd;fill:#182F6E;}
	.st1{fill:#2FB5D9;}
	.st2{fill:#182F6E;}
	.st3{fill:#FFFFFF;}
</style>
<path id="Rechthoek_1" class="st0" d="M20,0h155c11,0,20,9,20,20v44c0,11-9,20-20,20H20C9,84,0,75,0,64V20C0,9,9,0,20,0z"/>
<g id="OpenIT">
	<path class="st1" d="M260,40.4c0,19.2-11.7,30.9-28.8,30.9c-17.4,0-27.6-13.2-27.6-29.9c0-17.6,11.2-30.7,28.6-30.7
		C250.1,10.7,260,24.2,260,40.4z M217.6,41.2c0,11.5,5.4,19.6,14.3,19.6S246,52.3,246,40.9c0-10.5-5-19.6-14.2-19.6
		C222.8,21.2,217.6,29.8,217.6,41.2z"/>
	<path class="st1" d="M268.6,42c0-5.6-0.2-10.4-0.3-14.3h11.5l0.6,5.9h0.2c3.1-4.5,8-6.9,14.2-6.9c9.3,0,17.7,8.1,17.7,21.7
		c0,15.5-9.8,22.8-19.3,22.8c-5.1,0-9.1-2.1-11.1-4.9h-0.2v21.2h-13.2V42H268.6z M281.8,52c0,0.9,0.1,1.9,0.3,2.8
		c0.8,3.6,4.1,6.2,7.8,6.3c5.7,0,9.1-4.8,9.1-12c0-6.8-3-11.9-9-11.9c-3.9,0.1-7.2,2.9-7.9,6.7c-0.2,0.8-0.3,1.5-0.3,2.3V52z"/>
	<path class="st1" d="M331.1,53.3c0.4,5.5,5.8,8.1,12,8.1c4,0,8-0.5,11.8-1.7l1.7,9c-4.9,1.8-10.2,2.7-15.4,2.6
		c-14.5,0-22.7-8.4-22.7-21.7c0-10.8,6.7-22.7,21.5-22.7c13.8,0,19,10.7,19,21.2c0,1.7-0.1,3.5-0.4,5.2H331.1z M346.7,44.2
		c0-3.2-1.4-8.6-7.5-8.6c-5.6,0-7.8,5-8.2,8.6H346.7z"/>
	<path class="st1" d="M366.9,41.3c0-5.3-0.2-9.8-0.3-13.6h11.5l0.6,5.8h0.3c3-4.3,7.9-6.9,13.1-6.8c8.7,0,15.2,5.7,15.2,18.3v25.2
		h-13.2V46.7c0-5.5-1.9-9.2-6.7-9.2c-3.1,0-5.8,2-6.7,5c-0.4,1-0.6,2.2-0.5,3.3v24.5H367C367,70.3,366.9,41.3,366.9,41.3z"/>
	<path class="st2" d="M431.8,11.6v58.7h-13.3V11.6H431.8z"/>
	<path class="st2" d="M454.6,22.8h-15.8V11.6h45.1v11.1h-16v47.5h-13.3V22.8z"/>
</g>
<g id="OpenIT-2">
	<path class="st3" d="M37.8,10.3H51v37.1c0,16.7-8,22.5-20.9,22.5c-3.3,0-6.5-0.5-9.7-1.4l1.5-10.7c2.2,0.7,4.5,1,6.8,1
		c5.6,0,9.1-2.5,9.1-11.7V10.3z"/>
	<path class="st3" d="M101.8,55.3c0,5.6,0.2,10.1,0.4,13.7H90.7l-0.6-6h-0.3c-2.9,4.5-7.9,7.2-13.3,7c-8.6,0-15-5.4-15-18.6v-25
		h13.3v22.9c0,6.2,2,9.9,6.6,9.9c2.9,0,5.6-1.9,6.6-4.6c0.3-0.9,0.5-1.9,0.4-2.9V26.4h13.3L101.8,55.3z"/>
	<path class="st3" d="M112.3,57.4c3.5,1.9,7.4,3,11.4,3.2c4,0,5.7-1.4,5.7-3.6s-1.3-3.2-6.3-4.9c-8.8-3-12.2-7.8-12.1-12.8
		c0-7.9,6.8-13.9,17.3-13.9c4.1-0.1,8.2,0.8,12,2.4l-2.4,9.2c-2.8-1.5-6-2.4-9.2-2.4c-3.2,0-5,1.3-5,3.5c0,2,1.6,3,6.9,4.9
		c8.1,2.8,11.5,6.9,11.6,13.1c0,7.9-6.3,13.8-18.5,13.8c-4.8,0.1-9.5-0.9-13.8-3L112.3,57.4z"/>
	<path class="st3" d="M165,14.2v12.2h9.5v9.8H165v15.4c0,5.1,1.2,7.5,5.2,7.5c1.3,0,2.7-0.1,4-0.3l0.1,10c-2.8,0.9-5.7,1.2-8.6,1.1
		c-4.3,0-7.8-1.5-9.9-3.7c-2.4-2.5-3.7-6.6-3.7-12.6V36.2h-5.7v-9.8h5.7v-9.2L165,14.2z"/>
</g>
</svg>
